<svg width="100" height="80" viewBox="0 0 100 80" fill="none" xmlns="http://www.w3.org/2000/svg">
<path fill-rule="evenodd" clip-rule="evenodd" d="M44.9664 45C44.9964 45.15 45.9507 58.3 36.5177 68.54C29.508 76.145 18.9009 80 4.99627 80H0V65.9L4.012 65.1C10.9118 63.72 15.6933 60.985 18.2314 56.98C19.5312 54.8753 20.2692 52.4719 20.3748 50H4.99627C2.23691 50 0 47.7614 0 45V10C0 4.485 4.48165 0 9.99253 0H39.9701C42.7295 0 44.9664 2.23858 44.9664 5V45ZM99.9605 45C99.9905 45.15 100.94 58.3 91.5119 68.54C84.5021 76.145 73.895 80 59.9904 80H54.9941V65.9L59.0061 65.1C65.906 63.72 70.6874 60.985 73.2255 56.98C74.5253 54.8753 75.2634 52.4719 75.3689 50H59.9904C57.231 50 54.9941 47.7614 54.9941 45V10C54.9941 4.485 59.4758 0 64.9867 0H94.9643C97.7236 0 99.9605 2.23858 99.9605 5V45Z" fill="#F9E5DA"/>
</svg>
